/* XPM */
static const char * blueArrow_xpm[] = {
"24 28 3 1",
"   c None",
".  c #0000FF",
"+  c #0000FE",
"                        ",
"                        ",
"                        ",
"                        ",
"      ..                ",
"      ..+               ",
"      ++++              ",
"      ++.++             ",
"      ++..+             ",
"      .+.....           ",
"      ++.+...           ",
"      .+.......         ",
"      ++.+.+++..        ",
"      ++.++..+...       ",
"      ++.+.+.+.+..      ",
"      ++.+.+.+....      ",
"      ++.+...+.+.       ",
"      +..+.+....        ",
"      ++...+.+.         ",
"      .+...+.           ",
"      ++.++.+           ",
"      .+.+.             ",
"      +..+.             ",
"      +..+              ",
"      ..+               ",
"      ..                ",
"                        ",
"                        "};
