/* XPM */
static const char * removeItem_xpm[] = {
"32 32 113 2",
"   c None",
".  c #AE0E00",
"+  c #AC0E00",
"@  c #FF9B59",
"#  c #AA0E00",
"$  c #EA5112",
"%  c #DA2201",
"&  c #DA2301",
"*  c #AA0D00",
"=  c #A80D00",
"-  c #E74C0F",
";  c #D31A00",
">  c #D51900",
",  c #D82201",
"'  c #D31900",
")  c #D51A00",
"!  c #A40D00",
"~  c #E4440C",
"{  c #D82101",
"]  c #A60D00",
"^  c #A40C00",
"/  c #E23D09",
"(  c #D52001",
"_  c #D11900",
":  c #D11800",
"<  c #A20C00",
"[  c #A00C00",
"}  c #D32001",
"|  c #CE1700",
"1  c #CE1800",
"2  c #DD3707",
"3  c #DD3607",
"4  c #9D0C00",
"5  c #CC1700",
"6  c #CC1600",
"7  c #C91700",
"8  c #D11F01",
"9  c #EC581C",
"0  c #9B0C00",
"a  c #EC591C",
"b  c #990B00",
"c  c #C71600",
"d  c #C91600",
"e  c #C91500",
"f  c #E2420F",
"g  c #F47838",
"h  c #DA3509",
"i  c #950B00",
"j  c #C71500",
"k  c #C51500",
"l  c #940A00",
"m  c #C51400",
"n  c #C21400",
"o  c #8E0A00",
"p  c #C01300",
"q  c #C01400",
"r  c #8C0900",
"s  c #BB1200",
"t  c #BE1200",
"u  c #8A0900",
"v  c #860900",
"w  c #B91100",
"x  c #BB1100",
"y  c #840900",
"z  c #B71000",
"A  c #840800",
"B  c #830800",
"C  c #B50F00",
"D  c #B51000",
"E  c #B31000",
"F  c #810800",
"G  c #7C0800",
"H  c #B00F00",
"I  c #B30F00",
"J  c #7C0700",
"K  c #780700",
"L  c #7A0700",
"M  c #750700",
"N  c #AC0D00",
"O  c #A20B00",
"P  c #A00B00",
"Q  c #760700",
"R  c #730700",
"S  c #A80C00",
"T  c #AA0C00",
"U  c #9B0900",
"V  c #9B0A00",
"W  c #C50E00",
"X  c #A00A00",
"Y  c #700600",
"Z  c #A60C00",
"`  c #970900",
" . c #700700",
".. c #990900",
"+. c #710600",
"@. c #6E0600",
"#. c #A40B00",
"$. c #A60B00",
"%. c #950800",
"&. c #6D0600",
"*. c #6B0600",
"=. c #920800",
"-. c #690500",
";. c #920700",
">. c #680600",
",. c #940800",
"'. c #A20A00",
"). c #690600",
"!. c #660500",
"~. c #900700",
"{. c #630500",
"]. c #650500",
"^. c #620500",
"                                                                ",
"                                                                ",
"            . .                             . .                 ",
"          + @ @ +                         + @ @ +               ",
"        # $ % & $ #                     * $ % & $ #             ",
"      = - % ; > , - =                 = - % ' ) % - =           ",
"    ! ~ { ' ' ' ' { ~ ]             ] ~ , ' ' ' ' , ~ ]         ",
"  ^ / ( _ : : : : : ( / ^         ^ / ( : : : : : : ( / <       ",
"  [ } | 1 1 1 1 | 1 1 } 2 [     [ 3 } 1 1 1 1 | | 1 1 } [       ",
"    4 5 6 7 5 5 6 5 5 5 8 9 0 4 a 8 7 5 6 6 6 6 5 6 6 0         ",
"      b c d e d d d d d d f g g h c d c d c c d d d b           ",
"        i j k j k k k k j j j j k j k k j k j k k i             ",
"          l m n n n n m n n n n n n n n n m n n l               ",
"            o p p p p p p p p p q q q p p p p o                 ",
"              r s t s s s t s s t s t t t t u                   ",
"                v w x w w w x w w w w x x v                     ",
"                y z z z z z z z z z z z z A                     ",
"              B C C C C D E C C C E C C D C F                   ",
"            G H H H H H I I H I H H H H H H I J                 ",
"          K . . . . . . . . . . . . . . . . . . L               ",
"        M N # # N # N * N O P P O * N N N * N N N Q             ",
"      R S * T = = T S * U V W W U X T = = * T = * * R           ",
"    Y Z Z Z Z Z Z S Z U ` W  .Y W ..U Z Z Z Z Z S Z Z +.        ",
"  @.#.^ $.#.#.^ Z ^ ` %.W &.    @.W ` ` ^ #.^ #.^ Z #.^ &.      ",
"  *.W =.` O O O O %.=.W *.        *.W =.%.O O O O V %.W *.      ",
"    -.W %.%.X X ;.;.W >.            >.W ,.,.'.X ..;.W ).        ",
"      !.W ~.%.,.,.W !.                !.W ,.,.~.~.W !.          ",
"        {.W ~.~.W ].                    ].W ~.~.W ].            ",
"          {.W W {.                        ^.W W {.              ",
"            ^.^.                            ^.^.                ",
"                                                                ",
"                                                                "};
